<?xml version="1.0" encoding="utf-8"?>
<!-- Generator: Adobe Illustrator 22.1.0, SVG Export Plug-In . SVG Version: 6.00 Build 0)  -->
<svg version="1.1" id="Слой_1" xmlns="http://www.w3.org/2000/svg" xmlns:xlink="http://www.w3.org/1999/xlink" x="0px" y="0px"
	 viewBox="0 0 180 180" style="enable-background:new 0 0 180 180;" xml:space="preserve">
<style type="text/css">
	.st0{fill:#FFCD00;}
	.st1{fill:#FFDA44;}
	.st2{fill:none;}
</style>
<g>
	<polygon class="st0" points="40.2,21.3 33.2,19.8 29.6,13.6 29.6,30.8 36.2,33.7 35.4,26.6 	"/>
	<polygon class="st1" points="26.1,19.8 19.1,21.3 23.9,26.6 23.1,33.7 29.6,30.8 29.6,13.6 	"/>
</g>
<g>
	<polygon class="st0" points="27.4,99.9 20.4,98.4 16.9,92.3 16.9,109.4 23.4,112.3 22.7,105.2 	"/>
	<polygon class="st1" points="13.3,98.4 6.3,99.9 11.1,105.2 10.4,112.3 16.9,109.4 16.9,92.3 	"/>
</g>
<g>
	<polygon class="st0" points="76.4,153.7 69.4,152.2 65.8,146 65.8,163.2 72.4,166.1 71.6,159 	"/>
	<polygon class="st1" points="62.3,152.2 55.3,153.7 60.1,159 59.3,166.1 65.8,163.2 65.8,146 	"/>
</g>
<g>
	<polygon class="st0" points="155.9,120 148.9,118.5 145.3,112.3 145.3,129.5 151.8,132.4 151.1,125.3 	"/>
	<polygon class="st1" points="141.7,118.5 134.7,120 139.5,125.3 138.8,132.4 145.3,129.5 145.3,112.3 	"/>
</g>
<g>
	<polygon class="st0" points="161.1,28.6 154.1,27.2 150.6,21 150.6,38.1 157.1,41.1 156.3,34 	"/>
	<polygon class="st1" points="147,27.2 140,28.6 144.8,34 144,41.1 150.6,38.1 150.6,21 	"/>
</g>
<line class="st2" x1="168.6" y1="13.6" x2="168.3" y2="13.6"/>
</svg>
