<svg version="1.1" id="Слой_1" xmlns="http://www.w3.org/2000/svg" xmlns:xlink="http://www.w3.org/1999/xlink" x="0px" y="0px" viewBox="0 0 690.6 139.5" style="enable-background:new 0 0 690.6 139.5;" xml:space="preserve">
                        <style type="text/css">
                            .st0 {
                                fill: #FFFFFF;
                            }

                            .st1 {
                                fill: #FFEB3B;
                            }

                            .st2 {
                                fill: none;
                                stroke: #01655b;
                                stroke-width: 8;
                                stroke-linecap: round;
                                stroke-miterlimit: 10;
                            }

                        </style>
                    <g>
                        <g>
                            <path d="M11.4,131.3c-3.6-2.7-6.8-5.8-9.3-9.4c-4.5-6.3-2.1-15.2,5.1-18.1l0,0c5.2-2.1,11.3-0.4,14.4,4.2c1.1,1.6,2.4,3.1,3.8,4.3
			c3.5,2.9,7.7,4.4,12.7,4.4c5.5,0,9.8-1.8,13-5.4c3.2-3.6,4.8-8.6,4.8-15.1v-76c0-6.6,5.4-12,12-12h0.3c6.6,0,12,5.4,12,12V96
			c0,9.3-1.9,17.3-5.6,23.8c-3.7,6.5-8.7,11.5-15.1,14.8c-6.3,3.3-13.5,5-21.4,5C27.8,139.6,19,136.9,11.4,131.3z" />
                            <path d="M109.5,133.3c-7.4-4.2-13.2-10.1-17.3-17.4C88,108.5,86,100.2,86,91c0-9.1,2.1-17.4,6.2-24.8c4.1-7.4,9.9-13.3,17.3-17.5
			c7.4-4.2,15.9-6.4,25.3-6.4c9.3,0,17.7,2.1,25.1,6.4c7.4,4.3,13.2,10.1,17.3,17.5c4.1,7.4,6.2,15.7,6.2,24.8
			c0,9.2-2.1,17.5-6.2,24.9s-9.9,13.2-17.3,17.4c-7.4,4.2-15.8,6.4-25.1,6.4C125.3,139.6,116.9,137.5,109.5,133.3z" />
                            <path class="st0" d="M118.1,118.9c-4.9-2.8-8.7-6.6-11.4-11.5c-2.7-4.9-4.1-10.3-4.1-16.4c0-6,1.4-11.4,4.1-16.3
			c2.7-4.9,6.5-8.7,11.4-11.5c4.9-2.8,10.5-4.2,16.7-4.2c6.2,0,11.7,1.4,16.6,4.2c4.9,2.8,8.7,6.6,11.4,11.5
			c2.7,4.9,4.1,10.3,4.1,16.3c0,6.1-1.4,11.5-4.1,16.4c-2.7,4.9-6.5,8.7-11.4,11.5c-4.9,2.8-10.4,4.2-16.6,4.2
			C128.5,123.1,123,121.7,118.1,118.9z" />
                            <path d="M122.3,111.7c-3.6-2.1-6.5-4.9-8.5-8.5c-2-3.6-3-7.7-3-12.2c0-4.5,1-8.5,3-12.1c2-3.6,4.9-6.5,8.5-8.6
			c3.6-2.1,7.8-3.1,12.4-3.1c4.6,0,8.7,1,12.3,3.1c3.6,2.1,6.5,4.9,8.5,8.6c2,3.6,3,7.7,3,12.1c0,4.5-1,8.6-3,12.2
			c-2,3.6-4.9,6.5-8.5,8.5c-3.6,2.1-7.7,3.1-12.3,3.1C130.1,114.8,126,113.8,122.3,111.7z" />
                            <path class="st0" d="M129.8,99.2c-1.4-0.8-2.6-2-3.4-3.4c-0.8-1.4-1.2-3-1.2-4.8c0-1.8,0.4-3.4,1.2-4.8c0.8-1.4,1.9-2.6,3.4-3.4
			c1.4-0.8,3.1-1.2,4.9-1.2c1.8,0,3.4,0.4,4.9,1.2c1.4,0.8,2.6,2,3.4,3.4c0.8,1.4,1.2,3,1.2,4.8c0,1.8-0.4,3.4-1.2,4.8
			s-1.9,2.6-3.4,3.4c-1.4,0.8-3.1,1.2-4.9,1.2C132.9,100.4,131.3,100,129.8,99.2z" />
                            <g>
                                <path d="M201.8,139.7L201.8,139.7c6.5,0,11.8-5.3,11.8-11.8v-68c0-6.5-5.3-11.8-11.8-11.8h0c-6.5,0-11.8,5.3-11.8,11.8v68
				C190.1,134.5,195.3,139.7,201.8,139.7z" />
                            </g>
                            <path d="M235.9,48.6h0.5c5.8,0,10.6,4.7,10.6,10.6v0c0,0.5,0.4,0.9,0.9,0.9l0,0c0.3,0,0.6-0.2,0.8-0.4c2.7-4.2,6.5-7.6,11.4-10.1
			c5-2.6,10.5-3.9,16.3-3.9c11,0,19.4,3.4,25.1,10.1c5.7,6.7,8.6,15.9,8.6,27.5v45.1c0,6.5-5.3,11.8-11.8,11.8h0
			c-6.5,0-11.7-5.3-11.7-11.7V86.1c0-5.9-1.5-10.4-4.5-13.6c-3-3.2-7.2-4.8-12.6-4.8c-6.3,0-11.5,2.5-15.4,7.4
			c-3.9,4.9-5.8,11.1-5.8,18.5v34.6c0,6.6-5.4,12-12,12h0c-6.3,0-11.5-5.1-11.5-11.5v-69C224.8,53.6,229.8,48.6,235.9,48.6z" />
                            <path d="M354.3,131.3c-10.3-5.9-18.4-14-24.3-24.2c-5.9-10.2-8.9-21.6-8.9-34c0-12.4,3-23.8,8.9-34s14-18.3,24.3-24.2
			c10.3-5.9,21.7-8.9,34.1-8.9c14.7,0,27.4,4,38.3,12c5.7,4.2,6.2,12.6,1.1,17.5l-0.4,0.4c-4.1,3.9-10.4,4.4-14.9,0.9
			c-6.9-5.2-14.8-7.8-23.9-7.8c-8,0-15.3,1.8-21.9,5.5c-6.6,3.7-11.8,8.8-15.5,15.5c-3.8,6.7-5.7,14.4-5.7,23.2
			c0,8.7,1.9,16.5,5.7,23.2c3.8,6.7,8.9,11.9,15.5,15.5c6.6,3.7,13.9,5.5,21.9,5.5c10.1,0,19-3.2,26.7-9.5
			c4.6-3.8,11.1-3.7,15.4,0.4l0.5,0.4c5.1,4.8,4.7,12.9-0.7,17.4c-4.1,3.3-8.5,6.1-13.3,8.3c-8.7,4-18.3,6-28.8,6
			C375.9,140.2,364.6,137.2,354.3,131.3z" />
                            <path d="M457,12L457,12c6.4,0,11.6,5.2,11.6,11.6v20.7c0,0.1,0,0.2,0,0.2l-1.4,15.9l0,0c0.9,0,1.7-0.4,2.2-1.1
			c2.6-3.8,6.2-6.9,10.8-9.3c5-2.6,10.5-3.9,16.3-3.9c11.1,0,19.7,3.3,25.6,10c5.9,6.6,8.9,15.8,8.9,27.6v45.3
			c0,6.4-5.2,11.7-11.7,11.7l0,0c-6.6,0-11.9-5.3-11.9-11.9V86.5c0-5.9-1.6-10.4-4.8-13.6c-3.2-3.2-7.4-4.8-12.7-4.8
			c-6.2,0-11.3,2.5-15.4,7.5c-4,5-6,11.2-6,18.5v34.7c0,6.5-5.3,11.8-11.8,11.8l0,0c-6.5,0-11.7-5.2-11.7-11.7v-105
			C445.1,17.3,450.4,12,457,12z" />
                            <path d="M550.5,131.6c-6.2-5.7-9.3-13.1-9.3-22.4c0-6.1,1.6-11.5,4.8-16.2s7.7-8.3,13.3-10.8c5.6-2.5,11.9-3.8,18.7-3.8
			c8.8,0,16.5,1.2,22.9,3.6c0.6,0.2,1.3-0.2,1.3-0.9v-2.5c0-5-1.9-9.1-5.7-12.2c-3.8-3.1-8.8-4.7-15.2-4.7c-4.3,0-8.5,1-12.5,3
			c-1.8,0.9-3.4,1.9-5,3c-3.3,2.5-7.8,2.6-11.1,0l0,0c-5.3-4.2-5.1-12.2,0.4-16.1c2.3-1.6,4.7-3,7.3-4.2c6.7-3.1,14-4.7,21.9-4.7
			c14,0,24.7,3.2,32,9.7c7.3,6.5,11,15.9,11,28.4v44.8c0,6.4-5.2,11.6-11.6,11.6h-3.2c-4.6,0-8.4-3.7-8.4-8.4v0c0-0.5-0.4-1-1-1l0,0
			c-0.3,0-0.6,0.1-0.8,0.4c-2.7,3.4-6.2,6.2-10.6,8.4c-4.5,2.3-9.7,3.4-15.5,3.4C564.6,140.2,556.7,137.3,550.5,131.6z M596.2,115.3
			c3.9-4.2,5.9-9.1,6-14.7c0-0.4-0.2-0.8-0.6-0.9c-5.9-2.7-12.1-4-18.6-4c-12.2,0-18.3,4.5-18.3,13.6c0,3.7,1.3,6.7,4,9.1
			c2.6,2.3,6.4,3.5,11.3,3.5C586.7,121.9,592.1,119.7,596.2,115.3z" />
                            <path d="M659.1,138.1c-3.8-1.4-6.9-3.3-9.3-5.7c-5.6-5.4-8.4-13-8.4-23v-38c0-2.3-1.9-4.2-4.2-4.2h-1.4c-5.8,0-10.4-4.7-10.4-10.4
			v0c0-5.3,4.3-9.7,9.7-9.7h2.1c2.3,0,4.2-1.9,4.2-4.2v-9.6c0-6.7,5.4-12.1,12.1-12.1l0,0c6.3,0,11.4,5.1,11.4,11.4V43
			c0,2.3,1.9,4.2,4.2,4.2h8.4c5.5,0,9.9,4.4,9.9,9.9v0c0,5.6-4.6,10.2-10.2,10.2H669c-2.3,0-4.2,1.9-4.2,4.2v33.7
			c0,4.7,1,8,3.1,10.1c1.7,1.9,4.5,2.9,8.6,2.9c2.3,0,4.2-0.3,5.7-0.9v0c2.8-1.1,5.8,0.9,5.8,3.9v8.3c0,4.9-3.5,9.2-8.3,10.1
			c-2.6,0.5-5.3,0.7-8,0.7C667.1,140.2,662.9,139.5,659.1,138.1z" />
                        </g>
                        <line class="st1" x1="200.1" y1="20.8" x2="200.1" y2="20.8" />
                        <line class="st2" x1="134.7" y1="91" x2="214.6" y2="5.3" />
                        <path class="st1" d="M205.9,15.4c-1.8-1.6-3.1-3.5-4.2-5.2c-1.8-2.9-5.7-3.3-8-0.9L184,19.8c-4.9,5.3,0.6,18.5,0.6,18.5h0
		c0,0,13.6,4.6,18.5-0.6l8.9-9.5c2.7-2.9,2-7.5-1.4-9.4C209,17.8,207.4,16.7,205.9,15.4z" />
                    </g>
                    </svg>