<?xml version="1.0" encoding="utf-8"?>
<!-- Generator: Adobe Illustrator 22.1.0, SVG Export Plug-In . SVG Version: 6.00 Build 0)  -->
<svg version="1.1" id="Oval-level_2" xmlns="http://www.w3.org/2000/svg" xmlns:xlink="http://www.w3.org/1999/xlink" x="0px"
	 y="0px" viewBox="0 0 1550 1080" style="enable-background:new 0 0 1550 1080;" xml:space="preserve">
<style type="text/css">
	.st0{fill:#F5C944;}
	.st1{fill:#F8D752;}
</style>
<g>
	<polygon class="st0" points="274.5,350.7 261.9,348.2 255.6,337 255.6,367.9 267.3,373.3 265.8,360.5 	"/>
	<polygon class="st1" points="249.1,348.2 236.4,350.7 245.1,360.5 243.7,373.3 255.6,367.9 255.6,337 	"/>
</g>
<g>
	<polygon class="st0" points="1034.5,866.5 1021.9,864 1015.6,852.8 1015.6,883.6 1027.3,889 1025.9,876.2 	"/>
	<polygon class="st1" points="1009.1,864 996.5,866.5 1005.1,876.2 1003.7,889 1015.6,883.6 1015.6,852.8 	"/>
</g>
<g>
	<polygon class="st0" points="962.5,245.3 949.9,242.8 943.6,231.6 943.6,262.4 955.3,267.8 953.9,255 	"/>
	<polygon class="st1" points="937.1,242.8 924.5,245.3 933.1,255 931.7,267.8 943.6,262.4 943.6,231.6 	"/>
</g>
<g>
	<polygon class="st0" points="1292.5,171 1279.8,168.5 1273.5,157.3 1273.5,188.1 1285.2,193.5 1283.8,180.7 	"/>
	<polygon class="st1" points="1267,168.5 1254.4,171 1263,180.7 1261.6,193.5 1273.5,188.1 1273.5,157.3 	"/>
</g>
</svg>
