<?xml version="1.0" encoding="utf-8"?>
<!-- Generator: Adobe Illustrator 22.1.0, SVG Export Plug-In . SVG Version: 6.00 Build 0)  -->
<svg version="1.1" id="Oval-level_1" xmlns="http://www.w3.org/2000/svg" xmlns:xlink="http://www.w3.org/1999/xlink" x="0px"
	 y="0px" viewBox="0 0 1550 1080" style="enable-background:new 0 0 1550 1080;" xml:space="preserve">
<style type="text/css">
	.st0{fill:#F5C944;}
	.st1{fill:#F8D752;}
</style>
<g>
	<polygon class="st0" points="344.9,553.7 332.2,551.2 325.9,540 325.9,570.8 337.7,576.3 336.2,563.5 	"/>
	<polygon class="st1" points="319.4,551.2 306.8,553.7 315.5,563.5 314,576.3 325.9,570.8 325.9,540 	"/>
</g>
<g>
	<polygon class="st0" points="527.9,846.4 515.2,843.8 508.9,832.7 508.9,863.5 520.7,868.9 519.2,856.1 	"/>
	<polygon class="st1" points="502.4,843.8 489.8,846.4 498.5,856.1 497,868.9 508.9,863.5 508.9,832.7 	"/>
</g>
<g>
	<polygon class="st0" points="636,274.3 623.4,271.8 617.1,260.6 617.1,291.4 628.8,296.8 627.3,284 	"/>
	<polygon class="st1" points="610.6,271.8 597.9,274.3 606.6,284 605.2,296.8 617.1,291.4 617.1,260.6 	"/>
</g>
<g>
	<polygon class="st0" points="1148,292.4 1135.4,289.9 1129.1,278.7 1129.1,309.5 1140.8,315 1139.4,302.1 	"/>
	<polygon class="st1" points="1122.6,289.9 1110,292.4 1118.6,302.1 1117.2,315 1129.1,309.5 1129.1,278.7 	"/>
</g>
</svg>
