<?xml version="1.0" encoding="utf-8"?>
<!-- Generator: Adobe Illustrator 22.1.0, SVG Export Plug-In . SVG Version: 6.00 Build 0)  -->
<svg version="1.1" id="Oval-level_3" xmlns="http://www.w3.org/2000/svg" xmlns:xlink="http://www.w3.org/1999/xlink" x="0px"
	 y="0px" viewBox="0 0 1550 1080" style="enable-background:new 0 0 1550 1080;" xml:space="preserve">
<style type="text/css">
	.st0{fill:#A5CDE5;}
	.st1{fill:#A9C484;}
	.st2{fill:#E2B46E;}
	.st3{fill:#FFFFFF;}
	.st4{fill:#6DABD4;}
	.st5{fill:#E9C5AC;}
	.st6{fill:#E6C07E;}
</style>
<path class="st0" d="M1329.1,622.8l-21.4-21.4v-25c0-10.6-8.6-19.1-19.1-19.1h-60c-10.6,0-19.1,8.6-19.1,19.1v42.1
	c0,10.6,8.6,19.1,19.1,19.1h60c9.1,0,16.7-6.3,18.6-14.8L1329.1,622.8L1329.1,622.8z"/>
<path class="st1" d="M1325,727l21.4,21.4v25c0,10.6,8.6,19.1,19.1,19.1h60c10.6,0,19.1-8.6,19.1-19.1v-42.1
	c0-10.6-8.6-19.1-19.1-19.1h-60c-9.1,0-16.7,6.3-18.6,14.8L1325,727L1325,727z"/>
<path class="st2" d="M1287.5,732.5h-38.4c-21.9,0-39.6,17.7-39.6,39.6v20.4h117.6v-20.4C1327.1,750.2,1309.4,732.5,1287.5,732.5z"/>
<polygon class="st3" points="1290.2,732.5 1268.3,754.4 1246.4,732.5 "/>
<path class="st4" d="M1262.1,663.5h32.1v15.9c0,8.2-6.7,14.9-14.9,14.9h-36.8v-11.1C1242.4,672.3,1251.2,663.5,1262.1,663.5z"/>
<path class="st5" d="M1294.2,694.3v12.3c0,14.3-11.6,25.9-25.9,25.9l0,0c-14.3,0-25.9-11.6-25.9-25.9v-12.3H1294.2z"/>
<path class="st4" d="M1405,626.3h-38.4c-21.9,0-39.6,17.7-39.6,39.6v20.4h117.6v-20.4C1444.6,644.1,1426.9,626.3,1405,626.3z"/>
<polygon class="st3" points="1407.7,626.3 1385.8,648.3 1363.9,626.3 "/>
<path class="st6" d="M1379.6,557.4h32.1v15.9c0,8.2-6.7,14.9-14.9,14.9H1360v-11.1C1359.9,566.2,1368.7,557.4,1379.6,557.4z"/>
<path class="st5" d="M1411.7,588.2v12.3c0,14.3-11.6,25.9-25.9,25.9l0,0c-14.3,0-25.9-11.6-25.9-25.9v-12.3H1411.7z"/>
</svg>
