<?xml version="1.0" encoding="UTF-8"?>
<svg width="50px" height="50px" viewBox="0 0 50 50" version="1.1" xmlns="http://www.w3.org/2000/svg" xmlns:xlink="http://www.w3.org/1999/xlink">
    <!-- Generator: Sketch 50 (54983) - http://www.bohemiancoding.com/sketch -->
    <title>Tech Icons / ruby_on_rails</title>
    <desc>Created with Sketch.</desc>
    <defs>
        <linearGradient x1="-16.831404%" y1="37.8025234%" x2="100%" y2="37.8025224%" id="linearGradient-1">
            <stop stop-color="#428EEA" offset="0%"></stop>
            <stop stop-color="#1F55D0" offset="100%"></stop>
        </linearGradient>
        <linearGradient x1="92.1801058%" y1="56.8086713%" x2="61.6603934%" y2="86.3498%" id="linearGradient-2">
            <stop stop-color="#5CE6FF" offset="0%"></stop>
            <stop stop-color="#2FC8FF" offset="100%"></stop>
        </linearGradient>
        <linearGradient x1="88.8453%" y1="17.5373954%" x2="57.1775782%" y2="62.7000803%" id="linearGradient-3">
            <stop stop-color="#5CE6FF" offset="0%"></stop>
            <stop stop-color="#2FAAFF" offset="100%"></stop>
        </linearGradient>
        <linearGradient x1="18.2996606%" y1="88.1653451%" x2="70.3850933%" y2="37.5719715%" id="linearGradient-4">
            <stop stop-color="#5CE6FF" offset="0%"></stop>
            <stop stop-color="#2FC8FF" offset="100%"></stop>
        </linearGradient>
    </defs>
    <g id="Tech-Icons-/-ruby_on_rails" stroke="none" stroke-width="1" fill="none" fill-rule="evenodd">
        <path d="M7.76465395,46.0732426 L4.97705057,49.5474578 C4.74322431,49.8387617 4.43806124,50 4.12100869,50 L0.423383334,50 C0.0389571187,50 -0.145725991,49.3593465 0.136450778,49.0046222 L14.9428048,30.4686673 C15.1750458,30.1773635 15.4802089,30.0150503 15.7972614,30.0139753 L19.5757352,30.0000013 C19.960954,29.9989264 20.1464298,30.6417298 19.8626677,30.9953791 L16.7106679,34.9237448 L33.2790252,34.9237448 L30.1367375,30.9953791 C29.8538649,30.6417298 30.0387593,29.9989264 30.4235609,30.0000013 L34.1909817,30.0139753 C34.5062504,30.0150503 34.8088767,30.1762886 35.0411799,30.4665175 L49.8627571,49.0046222 C50.1456298,49.3582716 49.9615255,50 49.5775141,50 L45.8290567,50 C45.512998,50 45.2087914,49.8387617 44.9764881,49.5474578 L42.1974741,46.0732426 L7.76465395,46.0732426 L7.76465395,46.0732426 Z M10.9936941,42.0488608 L13.4816278,38.9481267 L36.4981158,38.9481267 L38.9783835,42.0488608 L10.9936941,42.0488608 L10.9936941,42.0488608 Z" id="Combined-Shape" fill="url(#linearGradient-1)"></path>
        <path d="M38.9659102,1.16879761 C38.419298,0.622185365 36.8565224,0.0814506708 35.9970939,0.0461853647 C33.5004408,-0.0543860639 27.2682776,0.0396547524 26.5087673,0.0461853647 C26.4637061,0.0468384259 26.4173388,0.0527159769 26.3729306,0.0540220994 C22.6028082,0.153940467 17.9693388,2.99345067 15.0338286,5.92765475 C13.6924408,7.27034863 12.2472163,8.81549149 11.1213388,10.602267 C11.0449306,10.7263486 10.9672163,10.8497772 10.8947265,10.9725527 C10.8261551,11.0874915 10.7588898,11.2037364 10.6935837,11.3212874 C10.6250122,11.4427568 10.5629714,11.5642262 10.4983184,11.6856956 C9.85831837,12.9134507 9.3861551,14.2456956 9.20917551,15.7000629 C9.1941551,15.8228384 9.17325714,16.0762262 9.1504,16.4745935 C9.08313469,17.6409609 9.00019592,20.063818 9.00019592,24.2101037 C9.00019592,26.4187568 9.30125714,28.9735323 10.2312163,29.9041445 C11.5948082,31.2670833 13.6643592,31.7405527 16.1179102,31.4414507 L17.171951,31.3787568 L17.1726041,31.3800629 L17.1726041,31.3787568 L39.1291755,30.0674099 L40.5123592,6.99475679 C40.7964408,4.56732822 40.3177469,2.52128741 38.9659102,1.16879761" id="Fill-1" fill="url(#linearGradient-2)"></path>
        <path d="M38.9663673,1.16886292 C38.4197551,0.622250671 36.8563265,0.0808629157 35.997551,0.0462506708 C33.5002449,-0.0543207578 27.2680816,0.0397200586 26.5085714,0.0462506708 C26.4635102,0.046903732 26.4171429,0.0527812831 26.3727347,0.0540874055 C27.3751837,0.107638426 28.2071837,0.423066997 28.7805714,1.03825067 C30.994449,3.41212822 28.5742041,9.2668221 23.3751837,14.1151486 C18.1761633,18.9634752 12.1666939,20.9690262 9.95281633,18.5958017 C9.448,18.0537609 9.19526531,17.3242915 9.15085714,16.4746588 C9.08359184,17.6410262 9,20.0638833 9,24.210169 C9,26.4188221 9.30106122,28.9735976 10.2316735,29.9035568 C11.5946122,31.2671486 13.6641633,31.740618 16.1177143,31.441516 C20.6408163,30.8903323 26.4739592,27.7014343 31.6194286,22.556618 C36.786449,17.3889445 39.9818776,11.5264139 40.5121633,6.9948221 C40.7962449,4.56739353 40.3182041,2.52135271 38.9663673,1.16886292" id="Fill-3" fill="url(#linearGradient-3)"></path>
        <path d="M23.3751837,14.1152792 C28.5742041,9.26695271 30.994449,3.41160577 28.7805714,1.03838128 C28.2071837,0.42319761 27.3751837,0.107769038 26.3727347,0.0542180178 C22.6032653,0.153483324 17.9691429,2.99364659 15.0342857,5.92785067 C13.6922449,7.27054455 12.2470204,8.81568741 11.1211429,10.6024629 C11.0447347,10.7265445 10.9670204,10.8493201 10.8945306,10.9727486 C10.8259592,11.0876874 10.7593469,11.2039323 10.6933878,11.3208303 C10.6254694,11.4429527 10.5627755,11.5644221 10.4981224,11.6852384 C9.85812245,12.9136466 9.38595918,14.2458915 9.20963265,15.6996058 C9.19395918,15.8230343 9.17306122,16.0764221 9.15085714,16.4741364 C9.19526531,17.3244221 9.448,18.0538915 9.95281633,18.5952792 C12.1666939,20.9691568 18.1761633,18.9636058 23.3751837,14.1152792" id="Fill-6" fill="url(#linearGradient-4)"></path>
    </g>
</svg>