<?xml version="1.0" encoding="utf-8"?>
<!-- Generator: Adobe Illustrator 22.1.0, SVG Export Plug-In . SVG Version: 6.00 Build 0)  -->
<svg version="1.1" id="Capa_1" xmlns="http://www.w3.org/2000/svg" xmlns:xlink="http://www.w3.org/1999/xlink" x="0px" y="0px" viewBox="0 0 60 60" style="enable-background:new 0 0 60 60;" xml:space="preserve" width="60px" height="60px">
    <style type="text/css">
        .st0 {
            fill: #009688;
        }

        .st1 {
            fill: #01655B;
        }

        .st2 {
            fill: #ECECF1;
        }

        .st3 {
            fill: #E2E2E7;
        }

    </style>
    <path class="st0" d="M51.2,31.8H26.5c-4.9,0-8.9,3.9-8.9,8.8v3.5c0,4.9,4.1,8.8,8.9,8.8h17l6.5,6.6c0.5,0.5,1.3,0.7,1.9,0.4
	c0.7-0.3,1.1-0.9,1.1-1.6v-5.6c4-0.8,7-4.4,7-8.6v-3.5C60,35.7,56.1,31.8,51.2,31.8z" />
    <path class="st1" d="M60,40.5v3.5c0,4.3-3,7.8-7,8.6v5.6c0,0.7-0.4,1.3-1.1,1.6c-0.6,0.3-1.4,0.1-1.9-0.4l-6.5-6.6H30V31.8h21.2
	C56.1,31.8,60,35.7,60,40.5z" />
    <path class="st0" d="M51.2,0H8.8C3.9,0,0,3.9,0,8.8v10.5c0,4.3,3,7.9,7,8.7v9c0,0.7,0.4,1.3,1.1,1.6c0.6,0.3,1.4,0.1,1.9-0.4
	l10.1-10h31.1c4.9,0,8.8-4.1,8.8-8.9V8.8C60,3.9,56.1,0,51.2,0z" />
    <path class="st1" d="M60,8.8v10.5c0,4.9-3.9,8.9-8.8,8.9H30V0h21.2C56.1,0,60,3.9,60,8.8z" />
    <g>
        <circle class="st2" cx="8.8" cy="8.8" r="1.8" />
        <circle class="st2" cx="8.8" cy="15.8" r="1.8" />
        <circle class="st2" cx="26.5" cy="40.5" r="1.8" />
    </g>
    <g>
        <circle class="st3" cx="33.5" cy="40.5" r="1.8" />
        <circle class="st3" cx="40.7" cy="40.5" r="1.8" />
    </g>
    <g>
        <path class="st2" d="M53,8.8c0,1-0.8,1.8-1.8,1.8H15.8c-1,0-1.8-0.8-1.8-1.8S14.8,7,15.8,7h35.4C52.2,7,53,7.8,53,8.8z" />
        <path class="st2" d="M53,15.8c0,1-0.8,1.8-1.8,1.8H15.8c-1,0-1.8-0.8-1.8-1.8s0.8-1.8,1.8-1.8h35.4C52.2,14.1,53,14.8,53,15.8z" />
    </g>
    <g>
        <path class="st3" d="M53,15.8c0,1-0.8,1.8-1.8,1.8H30v-3.5h21.2C52.2,14.1,53,14.8,53,15.8z" />
        <path class="st3" d="M51.2,10.5H30V7h21.2c1,0,1.8,0.8,1.8,1.8S52.2,10.5,51.2,10.5z" />
    </g>
</svg>
