<?xml version="1.0" encoding="utf-8"?>
<!-- Generator: Adobe Illustrator 22.1.0, SVG Export Plug-In . SVG Version: 6.00 Build 0)  -->
<svg version="1.1" id="Слой_1" xmlns="http://www.w3.org/2000/svg" xmlns:xlink="http://www.w3.org/1999/xlink" x="0px" y="0px" viewBox="0 0 60 60" style="enable-background:new 0 0 60 60;" xml:space="preserve" width="60px" height="60px">
    <style type="text/css">
        .st0 {
            fill: #ECECF1;
        }

        .st1 {
            fill: #E2E2E7;
        }

        .st2 {
            fill: #009688;
        }

        .st3 {
            fill: #01655B;
        }

    </style>
    <g>
        <path class="st0" d="M19.6,4.2c-2.5,0-4.6,2.1-4.6,4.6v20.8c0,2.5,2.1,4.6,4.6,4.6H30v-30H19.6z" />
        <path class="st1" d="M55.4,4.2H30v30h25.4c2.5,0,4.6-2.1,4.6-4.6V8.8C60,6.3,57.9,4.2,55.4,4.2z" />
    </g>
    <g>
        <rect x="15" y="11.1" class="st2" width="15" height="6.9" />
        <rect x="30" y="11.1" class="st3" width="30" height="6.9" />
    </g>
    <g>
        <path class="st2" d="M4.6,23.8c-2.5,0-4.6,2.1-4.6,4.6v20.8c0,2.5,2.1,4.6,4.6,4.6H30v-30H4.6z" />
        <path class="st3" d="M40.4,23.8H30v30h10.4c2.5,0,4.6-2.1,4.6-4.6V28.4C45,25.9,42.9,23.8,40.4,23.8z" />
        <g>
            <path class="st0" d="M17.6,29.6c-3.4,0-6.1,2.6-6.1,5.8c0,3.2,2.7,5.8,6.1,5.8c1.2,0,2.3-0.3,3.2-0.9c-1.3-1.3-2.1-3-2.1-4.9
			c0-1.9,0.8-3.6,2.1-4.9C19.9,29.9,18.8,29.6,17.6,29.6z" />
            <g>
                <path class="st0" d="M27.4,29.6c-3.4,0-6.1,2.6-6.1,5.8c0,3.2,2.7,5.8,6.1,5.8c0.9,0,1.8-0.2,2.6-0.6V30.1
				C29.2,29.8,28.3,29.6,27.4,29.6z" />
                <path class="st1" d="M33.5,35.3c0-2.3-1.4-4.3-3.5-5.2v10.4C32,39.6,33.5,37.6,33.5,35.3z" />
            </g>
        </g>
    </g>
    <g>
        <rect x="32.3" y="46.9" class="st1" width="4.6" height="2.3" />
        <rect x="9.2" y="46.9" class="st0" width="4.6" height="2.3" />
        <rect x="25.4" y="46.9" class="st0" width="4.6" height="2.3" />
        <rect x="16.2" y="46.9" class="st0" width="4.6" height="2.3" />
    </g>
</svg>
