<?xml version="1.0" encoding="utf-8"?>
<!-- Generator: Adobe Illustrator 22.1.0, SVG Export Plug-In . SVG Version: 6.00 Build 0)  -->
<svg version="1.1" id="Capa_1" xmlns="http://www.w3.org/2000/svg" xmlns:xlink="http://www.w3.org/1999/xlink" x="0px" y="0px" viewBox="0 0 512 512" style="enable-background:new 0 0 512 512;" xml:space="preserve" width="60px" height="60px">
    <style type="text/css">
        .st0 {
            fill: #009688;
        }

        .st1 {
            fill: #01655B;
        }

        .st2 {
            fill: #ECECF1;
        }

        .st3 {
            fill: #E2E2E7;
        }

        .st4 {
            opacity: 0.5;
            fill: #009688;
        }

    </style>
    <path class="st0" d="M481.4,256c18.6,13.8,30.6,35.4,30.6,60v120c0,41.4-33.6,76-75,76H75c-41.4,0-75-34.6-75-76V316
	c0-24.6,12-46.2,30.6-60C12,242.2,0,220.6,0,196V76C0,34.6,33.6,0,75,0h362c41.4,0,75,34.6,75,76v120C512,220.6,500,242.2,481.4,256
	z" />
    <path class="st1" d="M481.4,256c18.6,13.8,30.6,35.4,30.6,60v120c0,41.4-33.6,76-75,76H256V0h181c41.4,0,75,34.6,75,76v120
	C512,220.6,500,242.2,481.4,256z" />
    <path class="st2" d="M437,271H75c-24.9,0-45,20.1-45,45v120c0,24.9,20.1,46,45,46h362c24.9,0,45-21.1,45-46V316
	C482,291.1,461.9,271,437,271z" />
    <path class="st3" d="M482,316v120c0,24.9-20.1,46-45,46H256V271h181C461.9,271,482,291.1,482,316z" />
    <path class="st2" d="M437,30H75c-24.9,0-45,21.1-45,46v120c0,24.9,20.1,45,45,45h362c24.9,0,45-20.1,45-45V76
	C482,51.1,461.9,30,437,30z" />
    <path class="st3" d="M482,76v120c0,24.9-20.1,45-45,45H256V30h181C461.9,30,482,51.1,482,76z" />
    <path class="st0" d="M135,121c-41.4,0-75,33.6-75,75c0,8.4,6.6,15,15,15h120c8.4,0,15-6.6,15-15C210,154.6,176.4,121,135,121z" />
    <path class="st0" d="M286,91c-11.7,0-22.2,4.5-30,11.7c-9.3,8.1-15,20.1-15,33.3s5.7,25.2,15,33.3c7.8,7.2,18.3,11.7,30,11.7
	c24.9,0,45-20.1,45-45S310.9,91,286,91z" />
    <path class="st0" d="M286,331.5c-11.7,0-22.2,4.5-30,11.7c-9.3,8.1-15,20.1-15,33.3s5.7,25.2,15,33.3c7.8,7.2,18.3,11.7,30,11.7
	c24.9,0,45-20.1,45-45S310.9,331.5,286,331.5z" />
    <path class="st1" d="M407,181c-24.8,0-45-20.2-45-45s20.2-45,45-45s45,20.2,45,45S431.8,181,407,181z" />
    <path class="st4" d="M165,91c0,16.5-13.5,30-30,30s-30-13.5-30-30s13.5-30,30-30S165,74.5,165,91z" />
    <path class="st0" d="M135,361c-41.4,0-75,33.6-75,75c0,8.4,6.6,15,15,15h120c8.4,0,15-6.6,15-15C210,394.6,176.4,361,135,361z" />
    <path class="st4" d="M165,331c0,16.5-13.5,30-30,30s-30-13.5-30-30s13.5-30,30-30S165,314.5,165,331z" />
    <path class="st1" d="M331,136c0,24.9-20.1,45-45,45c-11.7,0-22.2-4.5-30-11.7v-66.6c7.8-7.2,18.3-11.7,30-11.7
	C310.9,91,331,111.1,331,136z" />
    <path class="st1" d="M331,376.5c0,24.9-20.1,45-45,45c-11.7,0-22.2-4.5-30-11.7v-66.6c7.8-7.2,18.3-11.7,30-11.7
	C310.9,331.5,331,351.6,331,376.5z" />
    <g>
        <path class="st1" d="M407,421c-24.8,0-45-20.2-45-45s20.2-45,45-45s45,20.2,45,45S431.8,421,407,421z" />
        <path class="st1" d="M331,376c0,24.9-20.1,45-45,45c-11.7,0-22.2-4.5-30-11.7v-66.6c7.8-7.2,18.3-11.7,30-11.7
		C310.9,331,331,351.1,331,376z" />
    </g>
</svg>
