<?xml version="1.0" encoding="UTF-8"?>
<svg width="34px" height="29px" viewBox="0 0 34 29" version="1.1" xmlns="http://www.w3.org/2000/svg" xmlns:xlink="http://www.w3.org/1999/xlink">
    <!-- Generator: Sketch 48.2 (47327) - http://www.bohemiancoding.com/sketch -->
    <title>icon-twitter</title>
    <desc>Created with Sketch.</desc>
    <defs>
        <linearGradient x1="50%" y1="-77.5686553%" x2="128.70886%" y2="177.24438%" id="linearGradient-1">
            <stop stop-color="#FF7343" offset="0%"></stop>
            <stop stop-color="#FF3355" offset="100%"></stop>
        </linearGradient>
    </defs>
    <g id="FOOTER-alt" stroke="none" stroke-width="1" fill="none" fill-rule="evenodd" transform="translate(-1133.000000, -135.000000)" opacity="0.949999988">
        <g id="SOME-&amp;-UPDATES" transform="translate(134.000000, 84.000000)" fill="url(#linearGradient-1)">
            <g id="SOCIAL" transform="translate(900.000000, 0.000000)">
                <path d="M127.629429,53.3098907 C126.360318,51.8882766 124.546525,51 122.538462,51 C118.689371,51 115.565616,54.278075 115.565616,58.3208484 C115.565616,58.895069 115.625531,59.4516356 115.745361,59.9877607 C109.948122,59.6820672 104.809041,56.7710102 101.366646,52.3361315 C100.76568,53.4213899 100.42253,54.6804011 100.42253,56.0211784 C100.42253,58.5596424 101.653512,60.8007754 103.526313,62.1136779 C102.384295,62.0783698 101.306731,61.7457307 100.36443,61.2012432 L100.36443,61.2904425 C100.36443,64.838903 102.769204,67.7992054 105.96286,68.4691295 C105.378234,68.641024 104.760927,68.7274358 104.124556,68.7274358 C103.675193,68.7274358 103.236723,68.6828362 102.811871,68.5973535 C103.699704,71.5046939 106.274237,73.6222486 109.327183,73.6789273 C106.940566,75.6431707 103.931194,76.8139118 100.664006,76.8139118 C100.101167,76.8139118 99.5446827,76.780462 99,76.7135625 C102.086535,78.7874467 105.754973,80 109.693029,80 C122.524844,80 129.539449,68.8463683 129.539449,59.1710294 C129.539449,58.8523277 129.534003,58.5345551 129.522201,58.2223575 C130.884816,57.1900612 132.068593,55.9013168 133,54.4332447 C131.750861,55.0148986 130.405495,55.4088623 128.994767,55.5854026 C130.435452,54.6804011 131.541158,53.2457787 132.062238,51.5361251 C130.713241,52.374227 129.222626,52.9837557 127.629429,53.3098907 Z" id="icon-twitter"></path>
            </g>
        </g>
    </g>
</svg>