<?xml version="1.0" encoding="UTF-8"?>
<svg width="36px" height="25px" viewBox="0 0 36 25" version="1.1" xmlns="http://www.w3.org/2000/svg" xmlns:xlink="http://www.w3.org/1999/xlink">
    <!-- Generator: Sketch 48.2 (47327) - http://www.bohemiancoding.com/sketch -->
    <title>icon-youtube</title>
    <desc>Created with Sketch.</desc>
    <defs>
        <linearGradient x1="50%" y1="-77.5686553%" x2="128.70886%" y2="177.24438%" id="linearGradient-1">
            <stop stop-color="#FF7343" offset="0%"></stop>
            <stop stop-color="#FF3355" offset="100%"></stop>
        </linearGradient>
    </defs>
    <g id="FOOTER-alt" stroke="none" stroke-width="1" fill="none" fill-rule="evenodd" transform="translate(-1189.000000, -138.000000)" opacity="0.949999988">
        <g id="SOME-&amp;-UPDATES" transform="translate(134.000000, 84.000000)" fill="url(#linearGradient-1)">
            <g id="SOCIAL" transform="translate(900.000000, 0.000000)">
                <path d="M190.64,59.3925948 C190.64,59.3925948 190.287875,56.9432202 189.209,55.8648115 C187.839875,54.4486246 186.305375,54.4420069 185.60225,54.3598372 C180.5645,54 173.007875,54 173.007875,54 L172.992125,54 C172.992125,54 165.4355,54 160.39775,54.3598372 C159.6935,54.4420069 158.160125,54.4486246 156.789875,55.8648115 C155.711,56.9434959 155.36,59.3925948 155.36,59.3925948 C155.36,59.3925948 155,62.269638 155,65.1453025 L155,67.8422893 C155,70.7190568 155.36,73.594997 155.36,73.594997 C155.36,73.594997 155.711,76.0443716 156.789875,77.1227803 C158.160125,78.5389672 159.959,78.4945735 160.76,78.6423687 C163.64,78.9156244 173,79 173,79 C173,79 180.5645,78.9889705 185.60225,78.6291333 C186.305375,78.5458606 187.839875,78.5392429 189.209,77.1230561 C190.287875,76.0443716 190.64,73.5952728 190.64,73.5952728 C190.64,73.5952728 191,70.7193325 191,67.8422893 L191,65.1453025 C191,62.269638 190.64,59.3925948 190.64,59.3925948 L190.64,59.3925948 Z M169.283,71.110328 L169.281875,61.123398 L179.008625,66.1340966 L169.283,71.110328 L169.283,71.110328 Z" id="icon-youtube"></path>
            </g>
        </g>
    </g>
</svg>